# xmcd
#
# Track frame offsets: 
#        150
#        24016
#        44256
#        67429
#        86511
#        106077
#        124166
#        142449
#        165455
#        182923
#        204336
#        225587
#        250180
#        270939
#        295054
#        319473
#
# Disc length: 4582 seconds
#
# Revision: 0
# Processed by: cddbd v1.5.2PL0 Copyright (c) Steve Scherf et al.
# Submitted via: ExactAudioCopy v1.2
#
DISCID=e411e410
DTITLE=Henny C Tsonga Prince - Levels
DYEAR=2018
DGENRE=Soul
TTITLE0=Feelings
TTITLE1=Phinda Futhe
TTITLE2=Let Me Love You
TTITLE3=Fall for You
TTITLE4=Mosadi
TTITLE5=Selina
TTITLE6=Xigubu Xa Limpopo
TTITLE7=Bianca
TTITLE8=Cinca Murhandziwa
TTITLE9=Kiss the Bride
TTITLE10=My Ronaldo
TTITLE11=Lazaro
TTITLE12=Makoti
TTITLE13=Rirhandzu
TTITLE14=Good Lovin
TTITLE15=Vatshiveri (Bonus Track)
EXTD=
EXTT0=
EXTT1=
EXTT2=
EXTT3=
EXTT4=
EXTT5=
EXTT6=
EXTT7=
EXTT8=
EXTT9=
EXTT10=
EXTT11=
EXTT12=
EXTT13=
EXTT14=
EXTT15=
PLAYORDER=
